#!OML:ASF F:\VICON\USERDATA\INSTALL\rory3\rory3.ASF
:FULLY-SPECIFIED
:DEGREES
1930
root 1.70688 9.7706 -5.32632 -194.513 177.58 -178.505
lowerback 30.9561 0.838326 -1.31487
upperback 13.1267 0.909505 3.02763
thorax -2.14997 0.310571 3.82716
lowerneck -18.4353 0.781798 -9.95419
upperneck 28.6805 3.98688 1.3952
head 12.3764 0.873876 2.84986
rclavicle -4.77083e-015 -8.74653e-015
rhumerus -33.0817 32.6528 -79.8132
rradius 104.576
rwrist 45.9892
rhand -46.5617 20.6897
rfingers 7.12502
rthumb -19.2859 -8.37395
lclavicle -4.77083e-015 -8.74653e-015
lhumerus -28.7768 -27.938 88.8824
lradius 89.5372
lwrist -18.2442
lhand -48.0093 11.6641
lfingers 7.12502
lthumb -20.6774 40.5826
rfemur -80.4426 -12.3033 25.3094
rtibia 109.827
rfoot -7.23329 7.06957
rtoes 10.2013
lfemur -79.4074 15.0683 -23.9052
ltibia 107.823
lfoot -10.9307 -20.5338
ltoes -2.82619
1931
root 1.70705 9.77229 -5.32802 -194.549 177.582 -178.504
lowerback 30.9983 0.842222 -1.28142
upperback 13.1078 0.922048 2.99459
thorax -2.19069 0.320055 3.76703
lowerneck -18.4066 0.733452 -10.018
upperneck 28.7752 3.90609 1.50179
head 12.4093 0.841499 2.89118
rclavicle -3.97569e-016 -9.54166e-015
rhumerus -33.1425 32.4965 -79.8372
rradius 104.546
rwrist 45.9489
rhand -46.5245 20.6204
rfingers 7.12502
rthumb -19.2501 -8.44686
lclavicle -3.97569e-016 -9.54166e-015
lhumerus -28.8198 -27.8869 88.8407
lradius 89.5722
lwrist -18.2342
lhand -47.9282 11.3731
lfingers 7.12502
lthumb -20.5994 40.3001
rfemur -80.3759 -12.4375 25.352
rtibia 109.786
rfoot -7.18039 7.13026
rtoes 10.5777
lfemur -79.3597 15.133 -23.9053
ltibia 107.787
lfoot -10.8679 -20.6282
ltoes -2.26613
1932
root 1.70655 9.77167 -5.32826 -194.562 177.523 -178.487
lowerback 30.9833 0.818687 -1.28139
upperback 13.0941 0.891138 2.9572
thorax -2.19705 0.306611 3.73497
lowerneck -18.4458 0.71429 -10.0264
upperneck 28.9245 3.88504 1.52872
head 12.4782 0.827677 2.90471
rclavicle 8.34896e-015 1.90833e-014
rhumerus -33.2673 32.3441 -79.878
rradius 104.535
rwrist 45.9669
rhand -46.5772 20.7705
rfingers 7.12502
rthumb -19.3008 -8.29173
lclavicle 8.34896e-015 1.90833e-014
lhumerus -28.8681 -27.8252 88.8285
lradius 89.5921
lwrist -18.1603
lhand -47.8419 11.2828
lfingers 7.12502
lthumb -20.5165 40.2187
rfemur -80.3687 -12.6805 25.3909
rtibia 109.777
rfoot -7.06949 7.24898
rtoes 11.0797
lfemur -79.3602 15.1711 -23.9784
ltibia 107.764
lfoot -11.0234 -20.7239
ltoes -2.99913
1933
root 1.7064 9.77331 -5.33161 -194.535 177.482 -178.466
lowerback 30.9517 0.820439 -1.29268
upperback 13.0636 0.889871 2.93124
thorax -2.21793 0.30741 3.71266
lowerneck -18.4097 0.677806 -10.1313
upperneck 28.9729 3.83634 1.6198
head 12.4891 0.805184 2.95044
rclavicle 3.97569e-015 2.94201e-014
rhumerus -33.4146 32.2174 -79.9137
rradius 104.535
rwrist 45.8349
rhand -46.5111 20.5475
rfingers 7.12502
rthumb -19.2372 -8.52109
lclavicle 3.97569e-015 2.94201e-014
lhumerus -28.9034 -27.8301 88.8396
lradius 89.6121
lwrist -18.1807
lhand -47.6703 11.674
lfingers 7.12502
lthumb -20.3516 40.6276
rfemur -80.4819 -12.9432 25.475
rtibia 109.778
rfoot -6.99331 7.35588
rtoes 10.9837
lfemur -79.3384 15.1962 -24.0186
ltibia 107.693
lfoot -10.7466 -20.7693
ltoes -1.97881
1934
root 1.70548 9.7731 -5.33232 -194.487 177.507 -178.481
lowerback 30.8233 0.844792 -1.24451
upperback 13.0914 0.929872 2.87046
thorax -2.13192 0.330101 3.60374
lowerneck -18.425 0.608313 -10.0905
upperneck 28.9483 3.70773 1.67355
head 12.4898 0.761041 2.94455
rclavicle 9.93923e-015 -1.43125e-014
rhumerus -33.4571 31.9608 -80.0003
rradius 104.453
rwrist 45.6341
rhand -46.4628 20.3656
rfingers 7.12502
rthumb -19.1908 -8.70752
lclavicle 9.93923e-015 -1.43125e-014
lhumerus -28.7905 -27.8849 88.6828
lradius 89.6072
lwrist -18.0939
lhand -47.4512 11.2593
lfingers 7.12502
lthumb -20.141 40.2352
rfemur -80.6134 -13.1082 25.5821
rtibia 109.787
rfoot -6.89175 7.50017
rtoes 11.3325
lfemur -79.4235 15.2769 -24.0421
ltibia 107.685
lfoot -10.8877 -20.7332
ltoes -2.70069
1935
root 1.70269 9.77346 -5.33582 -194.505 177.504 -178.554
lowerback 30.768 0.856976 -1.17356
upperback 13.1294 0.963206 2.85181
thorax -2.06589 0.349083 3.5313
lowerneck -18.3395 0.551287 -10.0259
upperneck 28.8672 3.60123 1.64091
head 12.4488 0.720983 2.90144
rclavicle 1.11319e-014 -7.95139e-016
rhumerus -33.4519 31.751 -80.0198
rradius 104.347
rwrist 45.4908
rhand -46.4766 20.2164
rfingers 7.12502
rthumb -19.204 -8.85543
lclavicle 1.11319e-014 -7.95139e-016
lhumerus -28.7052 -27.9346 88.5671
lradius 89.6401
lwrist -17.9982
lhand -47.1167 11.0231
lfingers 7.12502
lthumb -19.8194 40.0326
rfemur -80.6316 -13.2512 25.7265
rtibia 109.783
rfoot -6.83932 7.53999
rtoes 11.5804
lfemur -79.4334 15.3198 -23.9768
ltibia 107.67
lfoot -10.9916 -20.7983
ltoes -3.20432
1936
root 1.70109 9.77478 -5.339 -194.557 177.494 -178.539
lowerback 30.7966 0.874912 -1.19639
upperback 13.1286 0.979189 2.83962
thorax -2.08053 0.356808 3.52599
lowerneck -18.2385 0.518002 -10.1042
upperneck 28.8794 3.55308 1.68551
head 12.4341 0.697504 2.92289
rclavicle 9.14409e-015 3.10104e-014
rhumerus -33.4707 31.6864 -79.9922
rradius 104.273
rwrist 45.4275
rhand -46.6083 20.1398
rfingers 7.12502
rthumb -19.3307 -8.91938
lclavicle 9.14409e-015 3.10104e-014
lhumerus -28.8646 -27.9886 88.7007
lradius 89.7121
lwrist -17.8832
lhand -47.282 11.8814
lfingers 7.12502
lthumb -19.9783 40.8744
rfemur -80.5966 -13.4337 25.7849
rtibia 109.777
rfoot -6.78184 7.58423
rtoes 11.3844
lfemur -79.3509 15.3569 -23.9916
ltibia 107.653
lfoot -11.2888 -20.8245
ltoes -4.01307
